Coordinates
version=1
nRows=24
nColumns=24
inDegrees=yes

Units are S.I. units (second, meters, Newtons, ...)
Angles are in degrees.

endheader
time	pelvis_tilt	pelvis_list	pelvis_rotation	pelvis_tx	pelvis_ty	pelvis_tz	hip_flexion_r	hip_adduction_r	hip_rotation_r	knee_angle_r	ankle_angle_r	subtalar_angle_r	mtp_angle_r	hip_flexion_l	hip_adduction_l	hip_rotation_l	knee_angle_l	ankle_angle_l	subtalar_angle_l	mtp_angle_l	lumbar_extension	lumbar_bending	lumbar_rotation
      2.10000000	     14.13407811	      5.52310574	     -6.04243856	      0.47166660	      0.94474676	      0.26345550	      5.36810432	     -8.02644895	     -0.96027165	    -67.08986241	     17.34512460	      4.05497853	     50.16982351	     -4.01023017	     10.02858243	    -10.86426631	    -18.04376438	     20.34658856	      4.37837216	     14.18568170	    -29.37093118	     -9.35784440	      7.90431558
      2.10500000	     14.36677822	      5.56781693	     -5.93093254	      0.47834587	      0.94577599	      0.26323130	      5.70191033	     -8.09141872	     -1.19825957	    -66.50663385	     17.73103179	      3.98153648	     50.15651599	     -5.06324491	     10.13751017	    -10.79170189	    -17.42325059	     20.43444871	      4.86773723	     14.04581427	    -29.60029352	     -9.31048729	      7.70518977
      2.11000000	     14.53287669	      5.52721529	     -5.68528211	      0.48500024	      0.94667614	      0.26308175	      6.04295359	     -8.04485074	     -1.56483333	    -65.89590867	     18.15743411	      4.21710768	     49.95998204	     -5.99094583	     10.09763476	    -10.71702833	    -16.92695117	     20.66219179	      5.45090361	     13.83888835	    -29.78647660	     -9.12444569	      7.37679462
      2.11500000	     14.78973926	      5.53846615	     -5.54725232	      0.49186505	      0.94758179	      0.26282442	      6.30293327	     -8.08442384	     -1.82342724	    -65.28143644	     18.65680441	      4.79132149	     48.46878069	     -7.03369020	     10.16157507	    -10.68760105	    -16.40628559	     20.92241628	      5.94585593	     12.83410268	    -30.04199604	     -9.03083147	      7.19859949
      2.12000000	     14.82261369	      5.53768431	     -5.35558620	      0.49810039	      0.94801036	      0.26281756	      6.86206440	     -8.01463668	     -2.03022882	    -64.66936554	     18.98028911	      4.67976815	     48.42282816	     -7.73435417	     10.11681253	    -10.75077888	    -15.97494029	     21.20610383	      6.66440715	     12.79782192	    -30.10579217	     -8.90360841	      6.91235768
      2.12500000	     14.96440169	      5.52377661	     -5.24091203	      0.50425226	      0.94855019	      0.26286911	      7.31038853	     -7.93255889	     -2.17523901	    -63.97187226	     19.23239594	      4.45144331	     48.34400268	     -8.57586226	     10.09183882	    -10.88786114	    -15.49982941	     21.40847193	      7.30191457	     12.62454369	    -30.28559435	     -8.79553765	      6.75603028
      2.13000000	     15.14537896	      5.53845591	     -5.06300162	      0.51078707	      0.94915007	      0.26275641	      7.61191905	     -7.93215989	     -2.42889504	    -63.12413919	     19.57469375	      4.44945939	     48.17502390	     -9.51532538	     10.11116649	    -10.86199998	    -14.97194900	     21.57369927	      7.84848861	     12.38701139	    -30.49135470	     -8.69145131	      6.53586415
      2.13500000	     15.36607164	      5.58263182	     -4.94212231	      0.51736219	      0.94973364	      0.26259492	      7.84715773	     -7.98275999	     -2.62238219	    -62.22881460	     19.92204633	      4.59253981	     47.91620724	    -10.58077617	     10.21086244	    -10.73206890	    -14.24355376	     21.62771282	      8.18494075	     12.14698931	    -30.71003739	     -8.62300210	      6.32732026
      2.14000000	     15.55857600	      5.61388622	     -4.69968213	      0.52380335	      0.95012868	      0.26223972	      8.09323920	     -8.05575287	     -2.94954875	    -61.30196301	     20.28930887	      4.96258067	     47.65499434	    -11.55374417	     10.26927800	    -10.42768059	    -13.68146469	     21.81816766	      8.48483221	     11.96874274	    -30.93865529	     -8.47005264	      5.98998073
      2.14500000	     15.63316446	      5.64535544	     -4.42398606	      0.53006875	      0.95028707	      0.26179860	      8.46403568	     -8.09755560	     -3.22163929	    -60.32652761	     20.67081927	      5.37096884	     46.01516641	    -12.35818382	     10.32702688	     -9.99561528	    -13.17262466	     22.10438802	      8.51080291	     10.58384286	    -31.06230346	     -8.30763734	      5.67343350
      2.15000000	     15.88021083	      5.68498480	     -4.25579318	      0.53656218	      0.95068717	      0.26160765	      8.61103021	     -8.14618853	     -3.43508672	    -59.27390322	     20.88857374	      5.43195155	     46.03368394	    -13.39029304	     10.39121740	     -9.73270481	    -12.57984893	     22.16112467	      8.77714193	     10.53853427	    -31.32998549	     -8.21392187	      5.46209335
      2.15500000	     16.01613239	      5.70335209	     -4.08047119	      0.54291265	      0.95088774	      0.26145100	      8.87782252	     -8.17147325	     -3.71070757	    -58.18350115	     21.03873609	      5.42113285	     46.02230082	    -14.27212246	     10.41740460	     -9.44306625	    -12.02402997	     22.21188968	      8.94740208	     10.49271536	    -31.48988880	     -8.09141333	      5.26117804
      2.16000000	     16.07540308	      5.75078899	     -3.86063033	      0.54925297	      0.95078277	      0.26130568	      9.22614121	     -8.23709715	     -4.04219031	    -57.07982592	     21.22235293	      5.42942798	     45.93524647	    -15.07161530	     10.47629903	     -9.05067595	    -11.44641065	     22.31698676	      8.89264417	     10.44348386	    -31.58460600	     -7.98424837	      4.99096499
      2.16500000	     16.11388648	      5.77129261	     -3.60485466	      0.55540155	      0.95060757	      0.26108342	      9.54266799	     -8.24830427	     -4.28895993	    -55.87965112	     21.44000592	      5.56881959	     45.75948200	    -15.73013419	     10.47457054	     -8.68513990	    -11.12443455	     22.49309922	      8.92667842	     10.31095450	    -31.66662070	     -7.82160409	      4.72352000
      2.17000000	     16.31367368	      5.76510127	     -3.35958722	      0.56182259	      0.95067886	      0.26091153	      9.58951159	     -8.25334519	     -4.61815592	    -54.50719529	     21.64864704	      5.68565086	     45.38605044	    -16.66296475	     10.45135504	     -8.37691876	    -10.62545006	     22.60772201	      9.08869757	      9.64280416	    -31.89967417	     -7.63653036	      4.39193397
      2.17500000	     16.33657957	      5.76719136	     -3.09929625	      0.56801460	      0.95041536	      0.26073187	      9.83410183	     -8.22890393	     -4.84616700	    -53.09432818	     21.76765223	      5.76417695	     45.26132568	    -17.31159842	     10.41372129	     -8.01917713	    -10.27733032	     22.87303641	      9.03224468	      9.33914146	    -31.96767694	     -7.45259327	      4.16575533
      2.18000000	     16.34654604	      5.84992977	     -2.87148727	      0.57423721	      0.95004326	      0.26038414	     10.11014666	     -8.33506104	     -5.06236137	    -51.73306051	     21.89145503	      5.99768208	     44.83886261	    -17.95191416	     10.49123435	     -7.49525563	     -9.91725738	     22.95211487	      8.85724415	      8.19203781	    -32.02032009	     -7.34879310	      3.90101825
      2.18500000	     16.52867472	      5.83229572	     -2.75721437	      0.58062527	      0.94985251	      0.26037886	     10.12854548	     -8.27980764	     -5.19135539	    -50.19478293	     21.84407931	      5.88327197	     44.76496013	    -18.84027428	     10.48262782	     -7.20333604	     -9.45402369	     23.11693542	      8.77555923	      8.21220312	    -32.22222814	     -7.22079817	      3.76529631
      2.19000000	     16.67384537	      5.73019195	     -2.52520770	      0.58690367	      0.94968322	      0.26045541	     10.08098323	     -8.12491039	     -5.45347283	    -48.49491372	     21.79729660	      5.84756141	     44.70786206	    -19.60939580	     10.31627852	     -6.89650317	     -9.15558739	     23.34883666	      8.75726097	      8.29567336	    -32.40655274	     -6.96333753	      3.57697094
      2.19500000	     16.78258382	      5.64015393	     -2.25380250	      0.59328619	      0.94937427	      0.26051124	     10.07592303	     -7.97968401	     -5.70220995	    -46.83951075	     21.68495817	      5.84166953	     44.64123966	    -20.31051443	     10.12667124	     -6.63875004	     -8.92628199	     23.63189103	      8.90892053	      8.28402327	    -32.55098991	     -6.71416496	      3.29009530
      2.20000000	     16.91443058	      5.61333140	     -2.03462225	      0.59954810	      0.94896924	      0.26061404	     10.06454116	     -7.88225182	     -5.81246703	    -45.17150234	     21.48113984	      5.71490442	     44.58460508	    -21.01047900	     10.01675152	     -6.39139092	     -8.71293365	     23.85833585	      9.02710874	      8.21993039	    -32.72172665	     -6.54551622	      3.07682912
      2.20500000	     17.02589392	      5.61137039	     -1.83967148	      0.60582760	      0.94852431	      0.26062189	     10.01357455	     -7.83362205	     -6.00746106	    -43.39967714	     21.19508390	      5.34941316	     44.50616572	    -21.69244057	      9.95151084	     -6.08220650	     -8.48569089	     23.98895398	      9.03414182	      8.22363622	    -32.87597876	     -6.38318214	      2.86397559
      2.21000000	     17.07241897	      5.57102188	     -1.64402153	      0.61218137	      0.94795162	      0.26063369	      9.99396898	     -7.72305889	     -6.12860541	    -41.54277373	     20.84269777	      5.24198038	     44.47667640	    -22.24978153	      9.83329796	     -5.80373624	     -8.38399497	     24.31565601	      9.03073606	      8.20670814	    -32.94054041	     -6.21269628	      2.71352858
      2.21500000	     17.14752211	      5.56529865	     -1.51621027	      0.61850420	      0.94730799	      0.26084346	      9.89718283	     -7.61588036	     -6.06157312	    -39.58373629	     20.48290751	      5.06914216	     44.47174244	    -22.84567144	      9.76321195	     -5.55294181	     -8.25897640	     24.64540984	      8.99982566	      8.16976273	    -33.04304456	     -6.09472687	      2.52100891
